<?xml version="1.0" encoding="UTF-8"?>
<svg width="16px" height="20px" viewBox="0 0 16 20" version="1.1" xmlns="http://www.w3.org/2000/svg" xmlns:xlink="http://www.w3.org/1999/xlink">
    <!-- Generator: Sketch 52.2 (67145) - http://www.bohemiancoding.com/sketch -->
    <title>seo-marketing-business-creditcard-debt-rising</title>
    <desc>Created with Sketch.</desc>
    <g id="10月9日沟通设计稿" stroke="none" stroke-width="1" fill="none" fill-rule="evenodd">
        <g id="MainPageAll-Element" transform="translate(-17.000000, -386.000000)" fill="#C5C5C5" fill-rule="nonzero">
            <g id="LeftSideBar" transform="translate(0.000000, 50.000000)">
                <g id="seo-marketing-business-creditcard-debt-rising" transform="translate(13.000000, 334.000000)">
                    <rect id="Rectangle-path" opacity="0" x="0" y="0" width="24" height="24"></rect>
                    <path d="M18.375,2.625 L5.625,2.625 C4.79657288,2.625 4.125,3.29657288 4.125,4.125 L4.125,11.625 C4.125,12.4534271 4.79657288,13.125 5.625,13.125 L18.375,13.125 C19.2034271,13.125 19.875,12.4534271 19.875,11.625 L19.875,4.125 C19.875,3.29657288 19.2034271,2.625 18.375,2.625 Z M19.125,11.625 C19.125,12.038625 18.788625,12.375 18.375,12.375 L5.625,12.375 C5.211375,12.375 4.875,12.038625 4.875,11.625 L4.875,4.125 C4.875,3.711375 5.211375,3.375 5.625,3.375 L18.375,3.375 C18.788625,3.375 19.125,3.711375 19.125,4.125 L19.125,11.625 Z" id="Shape"></path>
                    <path d="M6.375,10.125 L8.625,10.125 L8.625,10.875 L6.375,10.875 L6.375,10.125 Z M9.375,10.125 L11.625,10.125 L11.625,10.875 L9.375,10.875 L9.375,10.125 Z M12.375,10.125 L14.625,10.125 L14.625,10.875 L12.375,10.875 L12.375,10.125 Z M15.375,10.125 L17.625,10.125 L17.625,10.875 L15.375,10.875 L15.375,10.125 Z M6.375,7.125 L8.625,7.125 L8.625,4.875 L6.375,4.875 L6.375,7.125 Z M7.125,5.625 L7.875,5.625 L7.875,6.375 L7.125,6.375 L7.125,5.625 Z M14.579625,16.07925 L12.420375,18.2385 L9.46575,15.283875 L5.25,19.5 L6.84075,21.091125 L9.46575,18.466125 L12.42075,21.420375 L16.17075,17.670375 L17.625,19.125 L17.625,14.625 L13.125,14.625 L14.579625,16.07925 Z M16.875,15.375 L16.875,17.314125 L16.700625,17.140125 L16.170375,16.609875 L15.640125,17.140125 L13.9665,18.814125 L12.420375,20.359875 L11.581875,19.521 L9.996,17.9355 L9.46575,17.40525 L8.9355,17.9355 L6.84075,20.03025 L6.3105,19.5 L9.46575,16.344375 L9.59625,16.474875 L11.890125,18.76875 L12.420375,19.299 L12.950625,18.76875 L15.109875,16.609875 L15.640125,16.07925 L15.109875,15.549 L14.93625,15.375 L16.875,15.375 Z" id="Shape"></path>
                </g>
            </g>
        </g>
    </g>
</svg>