<?xml version="1.0" encoding="UTF-8"?>
<svg width="1em" height="1em" viewBox="0 0 19 19" fill="rgba(255,255,255, 0.65)" version="1.1" xmlns="http://www.w3.org/2000/svg"
     xmlns:xlink="http://www.w3.org/1999/xlink">
    <path d="M16.21745,2.78255 C14.4229,0.988 12.03745,0 9.5,0 C6.96255,0 4.5771,0.988 2.78255,2.78255 C0.988,4.5771 0,6.96255 0,9.5 C0,12.03745 0.988,14.4229 2.78255,16.21745 C4.5771,18.012 6.96255,19 9.5,19 C12.03745,19 14.4229,18.012 16.21745,16.21745 C18.012,14.4229 19,12.03745 19,9.5 C19,6.96255 18.012,4.5771 16.21745,2.78255 Z M17.47715,6.42295 C17.2919,6.0895 16.8264,5.93085 16.2184,5.72375 C15.56575,5.50145 15.3349,4.83075 15.06795,4.05365 C14.83615,3.37915 14.59675,2.6828 14.0277,2.2496 C15.5968864,3.2330095 16.8066916,4.69670384 17.47715,6.42295 Z M14.81145,9.68145 C14.88365,10.3246 14.95775,10.99055 14.1588,11.88735 C13.94315,12.1296 13.8168,12.46685 13.68285,12.82405 C13.37315,13.6515 13.08055,14.43335 11.83415,14.44475 C11.799,14.40295 11.7002,14.24525 11.61185,13.7484 C11.5311,13.2905 11.48455,12.6977 11.4342,12.07165 C11.3582,11.11025 11.27175,10.01965 11.03425,9.11525 C10.73025,7.9591 10.2201,7.27605 9.4753,7.02715 C9.14816713,6.91835956 8.8054432,6.86380612 8.4607,6.86565 C8.1966,6.86565 7.9572,6.89415 7.7463,6.91885 C7.58195,6.93785 7.42615,6.95685 7.29505,6.95685 C7.07275,6.95685 6.821,6.95685 6.51035,6.24625 C6.0648,5.225 6.3935,3.58815 7.70165,2.7246 C8.4189,2.2515 8.91385,2.04915 9.35655,2.04915 C9.70995,2.04915 10.0909,2.1717 10.63145,2.4605 C11.0909191,2.71680529 11.6091998,2.84907653 12.1353,2.8443 C12.2797,2.8443 12.4108,2.8367 12.53715,2.8291 C12.64355,2.82245 12.7433,2.81675 12.8364,2.81675 C13.0454,2.81675 13.2145,2.8443 13.41305,2.9792 C13.7788,3.22905 13.9688,3.781 14.16925,4.3643 C14.47325,5.2497 14.8181,6.2529 15.9125,6.6253 C16.05975,6.67565 16.31245,6.76115 16.492,6.8362 C16.33715,6.9958 16.07875,7.22665 15.8251,7.45275 C15.6617,7.59905 15.47645,7.76435 15.27125,7.9515 C14.67845,8.49205 14.74875,9.12475 14.81145,9.6824 L14.81145,9.68145 Z M0.95095,9.42685 C1.05355,9.4449 1.16375,9.46675 1.27775,9.4905 C1.81165,9.6045 2.0615,9.7071 2.17075,9.76505 C2.1204,9.8629 2.01875,10.0073 1.9513,10.1023 C1.71665,10.43575 1.42405,10.8509 1.5352,11.30785 C1.61025,11.6166 1.5466,11.9947 1.43735,12.3443 C1.11398633,11.4302467 0.949165154,10.4676653 0.95,9.4981 L0.95095,9.42495 L0.95095,9.42685 Z M9.5,18.05 C6.35033079,18.0475198 3.45655278,16.3152671 1.9665,13.54035 C2.2154,13.0663 2.6771,12.0175 2.46145,11.0998 C2.47665,11.00765 2.6334,10.78535 2.72745,10.6514 C2.9849,10.28565 3.30505,9.83155 3.06755,9.3499 C2.9013,9.0117 2.45575,8.7837 1.57985,8.5861 C1.39106964,8.54428729 1.20133408,8.50691033 1.0108,8.474 C1.52,4.24175 5.1319,0.95095 9.49905,0.95095 C10.99815,0.95095 12.40795,1.3395 13.63345,2.0197 C13.3813052,1.91270688 13.1092863,1.86056993 12.83545,1.86675 C12.7148,1.86675 12.5951,1.8734 12.4792,1.881 C12.3640878,1.88880727 12.2487718,1.8932425 12.1334,1.8943 C11.8636,1.8943 11.5273,1.862 11.077,1.62165 C10.3892,1.2559 9.8743,1.09915 9.3556,1.09915 C8.7134,1.09915 8.0617,1.34805 7.17725,1.93135 C6.40313394,2.4481643 5.83050691,3.21569251 5.5556,4.10495 C5.28105,4.9799 5.3105,5.87575 5.63825,6.62625 C6.0249,7.51165 6.53505,7.90685 7.29315,7.90685 C7.4803,7.90685 7.6627,7.885 7.85555,7.8622 C8.0503,7.8394 8.25075,7.81565 8.4588,7.81565 C8.71625,7.81565 8.9433,7.85175 9.17225,7.92775 C9.5893,8.0674 9.8971,8.5348 10.1137,9.35655 C10.3303,10.1783 10.412,11.22425 10.48515,12.14575 C10.54595,12.91525 10.60295,13.64105 10.7293,14.1892 C10.80625,14.5217 10.90505,14.7744 11.0333,14.96155 C11.22425,15.24085 11.49785,15.39475 11.80375,15.39475 C12.64355,15.39475 13.31425,15.124 13.7978,14.5901 C14.19965,14.14645 14.40485,13.5983 14.57015,13.1575 C14.66705,12.89815 14.76775,12.6293 14.8656,12.5191 C15.94575,11.30595 15.8346,10.30655 15.7529,9.576 C15.69305,9.0402 15.6921,8.8502 15.9087,8.6526 C16.1101,8.46925 16.29345,8.3049 16.45495,8.1605 C16.7998,7.8527 17.0487,7.6304 17.2235,7.4404 C17.3432,7.3093 17.6244,7.00245 17.5465,6.61865 L17.5446,6.6082 C17.87045,7.51165 18.0481,8.4854 18.0481,9.5 C18.0481,14.21485 14.21295,18.05 9.4981,18.05 L9.5,18.05 Z"
          id="Shape"></path>
</svg>