<?xml version="1.0" encoding="UTF-8"?>
<svg width="1em" height="1em" viewBox="0 0 19 17" version="1.1" xmlns="http://www.w3.org/2000/svg" xmlns:xlink="http://www.w3.org/1999/xlink">
    <!-- Generator: Sketch 52.2 (67145) - http://www.bohemiancoding.com/sketch -->
                    <rect id="Rectangle-path" fill="#FFFFFF" opacity="0" x="0" y="0" width="19" height="19"></rect>
                    <path d="M18.2948477,2.59765625 L0.705152344,2.59765625 C0.315652344,2.59765625 2.13162821e-14,2.91332715 2.13162821e-14,3.30273438 L2.13162821e-14,12.1162109 L3.53489063,12.1162109 L5.59507324,10.1088535 C5.75870703,10.1938711 5.94445801,10.2421875 6.14160156,10.2421875 C6.27673535,10.2421875 6.40643262,10.2193096 6.52746484,10.17771 L7.82950293,11.9669756 C7.81790625,12.0335684 7.81152344,12.1019424 7.81152344,12.171875 C7.81152344,12.8277275 8.34318945,13.359375 8.99902344,13.359375 C9.64418848,13.359375 10.1688037,12.8447979 10.1857256,12.2036963 L13.6788125,8.74541797 C13.9596934,8.8953584 14.2804482,8.98046875 14.6210938,8.98046875 C15.7278066,8.98046875 16.625,8.08327539 16.625,6.9765625 C16.625,5.86984961 15.7278066,4.97265625 14.6210938,4.97265625 C13.5143809,4.97265625 12.6171875,5.86984961 12.6171875,6.9765625 C12.6171875,7.31028711 12.6988652,7.62490039 12.8431836,7.90168066 L9.57748438,11.134835 C9.40628027,11.0391299 9.20909961,10.984375 8.99902344,10.984375 C8.86891797,10.984375 8.74384082,11.0056016 8.62670508,11.0442695 L7.31444336,9.24099512 C7.32401758,9.18028418 7.32910156,9.11808887 7.32910156,9.0546875 C7.32910156,8.39883496 6.79743555,7.8671875 6.14160156,7.8671875 C5.48576758,7.8671875 4.95410156,8.39883496 4.95410156,9.0546875 C4.95410156,9.06145996 4.95449121,9.0681582 4.95460254,9.07491211 L3.05202344,10.9287109 L1.1875,10.9287109 L1.1875,4.28604004 C1.1875,4.04015332 1.38688867,3.84082031 1.63271973,3.84082031 L17.3672803,3.84082031 C17.613167,3.84082031 17.8125,4.04026465 17.8125,4.28604004 L17.8125,13.4336865 C17.8125,13.6795732 17.6131113,13.8789062 17.3672803,13.8789062 L2.375,13.880168 C2.3627168,13.8794072 2.35035938,13.8789062 2.33789063,13.8789062 C2.00997363,13.8789062 1.74414063,14.1447393 1.74414063,14.4726562 C1.74414063,14.8005732 2.00997363,15.0664062 2.33789063,15.0664062 C2.35035938,15.0664062 2.3627168,15.0659053 2.375,15.0651445 L2.375,15.0664062 L7.71875,15.0664062 L7.71875,16.8476562 L4.80573828,16.8476562 C4.47778418,16.8476562 4.21191406,17.1134893 4.21191406,17.4414062 C4.21191406,17.7693975 4.47778418,18.0351562 4.80573828,18.0351562 L13.6561758,18.0351562 C13.9841299,18.0351562 14.25,17.7693232 14.25,17.4414062 C14.25,17.113415 13.9841484,16.8476562 13.6561758,16.8476562 L11.28125,16.8476562 L11.28125,15.0664062 L18.2948477,15.0664062 C18.6843477,15.0664062 19,14.7507354 19,14.3613281 L19,3.30273437 C19,2.91336426 18.684292,2.59765625 18.2948477,2.59765625 Z M14.6210938,6.16015625 C15.0719912,6.16015625 15.4375,6.52566504 15.4375,6.9765625 C15.4375,7.42745996 15.0719912,7.79296875 14.6210938,7.79296875 C14.1701963,7.79296875 13.8046875,7.42745996 13.8046875,6.9765625 C13.8046875,6.52566504 14.1701963,6.16015625 14.6210938,6.16015625 Z" id="Shape" fill="#C5C5C5"></path>
</svg>