<?xml version="1.0" encoding="UTF-8"?>
<svg width="22px" height="22px" viewBox="0 0 22 22" version="1.1" xmlns="http://www.w3.org/2000/svg" xmlns:xlink="http://www.w3.org/1999/xlink">
    <!-- Generator: Sketch 52.2 (67145) - http://www.bohemiancoding.com/sketch -->
    <title>fs-showroad</title>
    <desc>Created with Sketch.</desc>
    <g id="10月9日沟通设计稿" stroke="none" stroke-width="1" fill="none" fill-rule="evenodd">
        <g id="MainPageAll-Element" transform="translate(-14.000000, -321.000000)" fill="#C5C5C5" fill-rule="nonzero">
            <g id="LeftSideBar" transform="translate(0.000000, 50.000000)">
                <g id="fs-showroad" transform="translate(14.000000, 271.000000)">
                    <path d="M15.0784108,16.5331685 L15.0784108,19.225679 C15.0784108,19.6923786 14.6919849,20.0569554 14.2335117,20.0569554 L13.1391576,20.0569554 C13.0210137,20.3470867 12.846628,20.6205013 12.626913,20.8511049 C12.197604,21.2804139 11.6154947,21.5377354 11.001487,21.5377354 C10.3896378,21.5377354 9.81844109,21.2856183 9.37634884,20.8511049 C9.14545737,20.6205013 8.97901023,20.3470867 8.85863584,20.0569554 L7.76948628,20.0569554 C7.30034035,20.0569554 6.92485095,19.6923785 6.92485095,19.225679 L6.92485095,16.5331685 C6.60526763,16.302349 6.29467822,16.0504238 6.01577131,15.7605803 C4.68779169,14.4460076 3.95041163,12.6658146 3.95041161,10.777311 C3.95041161,8.90518829 4.68779166,7.12991192 6.01577131,5.7992461 C7.34319931,4.47428841 9.12142569,3.73439007 11.001487,3.73439009 C12.87608,3.73439009 14.6625328,4.47428844 15.9820222,5.7992461 C17.3173648,7.1299119 18.0550327,8.90518827 18.0550327,10.777311 C18.0550327,12.6658146 17.3173888,14.4460076 15.9820222,15.7605803 C15.7031153,16.0504478 15.3998889,16.302349 15.0784108,16.5331685 Z M11.001487,9.96761996 C11.1384821,9.86556915 11.2940167,9.77440695 11.4493354,9.71516713 C11.7576943,9.59181875 12.079724,9.53804722 12.4014898,9.5380472 C12.728676,9.5380472 13.0556463,9.59181873 13.3533804,9.71516713 C13.6514023,9.83880329 13.9357775,10.0211277 14.1554686,10.2623321 C14.3514158,10.4555451 14.3514158,10.7609301 14.1554686,10.9650557 C13.9597853,11.163761 13.6377556,11.163761 13.4472767,10.9650557 C13.3162776,10.8359992 13.1443381,10.7238272 12.967506,10.6542504 C12.7928564,10.5682927 12.6025934,10.5361065 12.4014898,10.5361065 C12.2110109,10.5361065 12.0153276,10.5734972 11.8357614,10.6542504 C11.6638459,10.7238272 11.4945927,10.8359992 11.3527049,10.9650557 C11.1570215,11.163761 10.8404602,11.163761 10.6499813,10.9650557 C10.5078057,10.8359992 10.3415744,10.7238272 10.1619842,10.6542504 C9.98491222,10.5734972 9.79438541,10.5361065 9.60419436,10.5361065 C9.4082472,10.5361065 9.20982973,10.5682927 9.03249397,10.6542504 C8.85319154,10.7238272 8.69245252,10.8359992 8.55512162,10.9650557 C8.35430577,11.163761 8.04316473,11.163761 7.84206109,10.9650557 C7.65158223,10.7609301 7.65158223,10.4555451 7.84206109,10.2623321 C8.08055539,10.0211037 8.35430579,9.83877931 8.65203992,9.71516713 C8.96039886,9.59181875 9.27674438,9.53804722 9.60419436,9.5380472 C9.9259602,9.5380472 10.2447041,9.59181873 10.5509285,9.71516713 C10.7119073,9.77440695 10.8540829,9.86556915 11.001487,9.96761996 Z M11.5082394,2.58110802 C11.5082394,2.8545946 11.2751654,3.08546206 11.001463,3.08546206 C10.7225561,3.08546206 10.494135,2.8545706 10.494135,2.58110802 L10.494135,0.966330828 C10.494135,0.692844242 10.7225561,0.462240594 11.001463,0.462240594 C11.2751654,0.462240594 11.5082394,0.692844242 11.5082394,0.966330828 L11.5082394,2.58110802 Z M15.536884,3.91673846 C15.3998889,4.163723 15.0915539,4.2548852 14.8527238,4.10995145 C14.6142295,3.9811108 14.5312458,3.66946609 14.6731336,3.42332098 L15.4721998,2.03391901 C15.6146633,1.80331536 15.9230701,1.7119373 16.15636,1.85708689 C16.3951901,1.99110802 16.4835941,2.29678079 16.3414185,2.53829703 L15.536884,3.91673846 Z M18.3637034,7.11928712 C18.1142485,7.25326027 17.8165384,7.16730256 17.6743388,6.93127859 C17.5375835,6.69000219 17.6262754,6.38404161 17.856879,6.25006845 L19.2514135,5.43462132 C19.4954241,5.30606848 19.7931582,5.39723068 19.9356456,5.62262987 C20.0668847,5.86390627 19.9888655,6.17499936 19.744879,6.30930828 L18.3637034,7.11928712 Z M19.2086026,11.2871094 C18.9348522,11.2871094 18.7017782,11.0507976 18.7017782,10.777335 C18.7017782,10.5148089 18.9348522,10.2836537 19.2086026,10.2836537 L20.8152013,10.2836537 C21.0886879,10.2836537 21.3165574,10.5148089 21.3165574,10.777335 C21.3165574,11.0508215 21.0886879,11.2871093 20.8152013,11.2871094 L19.2086026,11.2871094 Z M17.856879,15.3154661 C17.6262754,15.1864096 17.5375835,14.8755564 17.6743388,14.6288356 C17.8165144,14.4037003 18.1142485,14.3174548 18.3637034,14.4514279 L19.744879,15.2616946 C19.9888416,15.3905352 20.0668607,15.696184 19.9356456,15.9426169 C19.7931822,16.1737722 19.4954481,16.2594661 19.2514135,16.1254449 L17.856879,15.3154661 Z M3.63924659,14.4514519 C3.8911478,14.3174788 4.18888194,14.4037243 4.33105754,14.6288596 C4.46234452,14.8755564 4.37962461,15.1864336 4.14057868,15.3154901 L2.75966694,16.1254689 C2.51023606,16.2594901 2.21250191,16.1738201 2.07001454,15.9426409 C1.93877551,15.696208 2.0165308,15.3905352 2.25507305,15.2617186 L3.63924659,14.4514519 Z M2.79434743,10.2836297 C3.06783402,10.2836297 3.29596733,10.514785 3.29596733,10.777311 C3.29596733,11.0507976 3.06781002,11.2870854 2.79434743,11.2870854 L1.18774871,11.2870854 C0.914334078,11.2870854 0.683442641,11.0507736 0.683442617,10.777311 C0.683442617,10.514785 0.914334078,10.2836297 1.18774871,10.2836297 L2.79434743,10.2836297 Z M4.14607095,6.25006845 C4.39032134,6.38404161 4.4729693,6.68997819 4.33108152,6.94216721 C4.18890591,7.17277086 3.87781283,7.2532603 3.63927057,7.11928712 L2.24718242,6.30930828 C2.01087064,6.17499934 1.92541658,5.86390627 2.07006249,5.62262987 C2.21252591,5.38084979 2.52066898,5.30606848 2.75971491,5.43462132 L4.14607095,6.25006845 Z M7.32981638,3.42332098 C7.47199198,3.66946611 7.38872045,3.9811108 7.13904973,4.10995145 C6.91415422,4.25488517 6.60524366,4.16372298 6.46030991,3.91673846 L5.66424165,2.53829703 C5.52206605,2.29678079 5.60526563,1.98563973 5.84383189,1.85708689 C6.07985586,1.7119373 6.39099692,1.80331536 6.5331965,2.03391901 L7.32981638,3.42332098 Z M13.7799312,15.3692377 L13.8176097,15.3476763 C14.1742958,15.1380824 14.4963015,14.8755564 14.7940356,14.5805804 C15.8048783,13.566428 16.3627401,12.2040796 16.3627401,10.777359 C16.3627401,9.34485819 15.8048783,7.99889077 14.7940356,6.99049445 C13.7799552,5.97662984 12.4309418,5.41334776 11.001487,5.41334776 C9.57447852,5.41334776 8.22273099,5.97662984 7.21188833,6.99049445 C6.20054202,7.99889075 5.6293213,9.34485819 5.62932132,10.777359 C5.62932132,12.2041036 6.20051804,13.566452 7.21188833,14.5805804 C7.50962246,14.8755804 7.82865416,15.1381064 8.18807448,15.3476763 L8.22273099,15.3799344 C9.05702933,15.8839527 10.0143882,16.1470303 11.001487,16.1470303 C11.9855638,16.1470303 12.9486788,15.8891332 13.7799312,15.3692377 Z M8.61436147,17.4179286 L8.61436147,18.3837778 L9.54495453,18.3837778 C10.0091838,18.3837778 10.3896378,18.7535591 10.3896378,19.225679 L10.3896378,19.2366395 C10.3896378,19.3921741 10.4491175,19.5477326 10.5615533,19.6658765 L10.5670216,19.6658765 C10.6821675,19.7838046 10.8352557,19.8375282 11.001463,19.8375282 C11.1569976,19.8375282 11.3177606,19.772868 11.4307719,19.6658765 L11.4411089,19.6658765 C11.5513862,19.5477327 11.6154947,19.3921741 11.6154947,19.2366395 L11.6154947,19.225679 C11.6154947,18.7535591 11.9907443,18.3837778 12.4604658,18.3837778 L13.3885885,18.3837778 L13.3885885,17.4179286 C12.626913,17.6971713 11.8169341,17.8311445 11.001463,17.8311445 C10.1863037,17.8311445 9.37632486,17.6971713 8.61436147,17.4179286 Z" id="Shape"></path>
                </g>
            </g>
        </g>
    </g>
</svg>