<?xml version="1.0" encoding="UTF-8"?>
<svg width="19px" height="15px" viewBox="0 0 19 15" version="1.1" xmlns="http://www.w3.org/2000/svg" xmlns:xlink="http://www.w3.org/1999/xlink">
    <!-- Generator: Sketch 52.2 (67145) - http://www.bohemiancoding.com/sketch -->
    <title>networking-4</title>
    <desc>Created with Sketch.</desc>
    <g id="10月9日沟通设计稿" stroke="none" stroke-width="1" fill="none" fill-rule="evenodd">
        <g id="MainPageAll-Element" transform="translate(-16.000000, -202.000000)" fill-rule="nonzero">
            <g id="LeftSideBar" transform="translate(0.000000, 50.000000)">
                <g id="networking-4" transform="translate(16.000000, 150.000000)">
                    <rect id="Rectangle-path" fill="#FFFFFF" opacity="0" x="0" y="0" width="19" height="19"></rect>
                    <path d="M4.39088681,9.40682469 C4.39088681,10.0007508 4.87235909,10.4822231 5.46628525,10.4822231 C6.06021141,10.4822231 6.54168369,10.0007508 6.54168369,9.40682469 C6.54168369,8.81289853 6.06021141,8.33142625 5.46628525,8.33142625 C4.87235909,8.33142625 4.39088681,8.81289853 4.39088681,9.40682469 Z" id="Shape" fill="#C5C5C5"></path>
                    <path d="M8.42460156,9.40682469 C8.42460156,10.0007508 8.90607384,10.4822231 9.5,10.4822231 C10.0939262,10.4822231 10.5753984,10.0007508 10.5753984,9.40682469 C10.5753984,8.81289853 10.0939262,8.33142625 9.5,8.33142625 C8.90607384,8.33142625 8.42460156,8.81289853 8.42460156,9.40682469 Z" id="Shape" fill="#C5C5C5"></path>
                    <path d="M12.4583163,9.40682469 C12.4583163,10.0007508 12.9397886,10.4822231 13.5337148,10.4822231 C14.1276409,10.4822231 14.6091132,10.0007508 14.6091132,9.40682469 C14.6091132,8.81289853 14.1276409,8.33142625 13.5337148,8.33142625 C12.9397886,8.33142625 12.4583163,8.81289853 12.4583163,9.40682469 Z" id="Shape" fill="#C5C5C5"></path>
                    <path d="M1.42868819,16.2785043 C2.21679607,16.2785043 2.85737638,15.637924 2.85737638,14.8498161 C2.85737638,14.1937066 2.41091132,13.638537 1.80527177,13.4754802 L1.80527177,12.3923171 L5.12464243,12.3923171 L5.12464243,13.4638333 C4.49959134,13.6152432 4.03371475,14.1781774 4.03371475,14.8498161 C4.03371475,15.637924 4.67429506,16.2785043 5.46240294,16.2785043 C6.25051082,16.2785043 6.89109113,15.637924 6.89109113,14.8498161 C6.89109113,14.1898243 6.43686147,13.6307724 5.8273396,13.4715979 L5.8273396,10.7889252 C6.43686145,10.6258684 6.89109113,10.0706988 6.89109113,9.410707 C6.89109113,8.75071518 6.43686147,8.19166327 5.8273396,8.03248876 L5.8273396,7.10073559 L9.14671025,7.10073559 L9.14671025,8.02472414 C8.52942378,8.18389865 8.07131181,8.74295055 8.07131181,9.40682469 C8.07131181,10.1949326 8.71189212,10.8355129 9.5,10.8355129 C10.2881079,10.8355129 10.9286882,10.1949326 10.9286882,9.40682469 C10.9286882,8.73906826 10.4705762,8.18001636 9.85328975,8.02472414 L9.85328975,7.09297099 L13.1726604,7.09297099 L13.1726604,8.02472414 C12.5631385,8.18778096 12.1089089,8.74295055 12.1089089,9.40294238 C12.1089089,10.0629342 12.5631385,10.6219861 13.1726604,10.7811606 L13.1726604,11.6818553 L9.5,11.6818553 C9.30588476,11.6818553 9.14671025,11.8410298 9.14671025,12.0351451 L9.14671025,13.4638333 C8.52942378,13.6230078 8.07131181,14.1820597 8.07131181,14.8459338 C8.07131181,15.6340417 8.71189212,16.274622 9.5,16.274622 C10.2881079,16.274622 10.9286882,15.6340417 10.9286882,14.8459338 C10.9286882,14.1781774 10.4705762,13.6191255 9.85328975,13.4638333 L9.85328975,12.3884348 L13.1726604,12.3884348 L13.1726604,13.4677156 C12.5631385,13.6307724 12.1089089,14.185942 12.1089089,14.8459338 C12.1089089,15.6340417 12.7494892,16.274622 13.5375971,16.274622 C14.3257049,16.274622 14.9662852,15.6340417 14.9662852,14.8459338 C14.9662852,14.1742951 14.5004087,13.6113608 13.8753576,13.459951 L13.8753576,12.3884348 L17.1947282,12.3884348 L17.1947282,13.4715979 C16.5890887,13.638537 16.1426236,14.1898243 16.1426236,14.8459338 C16.1426236,15.6340417 16.7832039,16.274622 17.5713118,16.274622 C18.3594197,16.274622 19,15.6340417 19,14.8459338 C19,14.1704127 18.5302411,13.6035962 17.8974254,13.4560687 L17.8974254,12.0351451 C17.8974254,11.8410298 17.7382509,11.6818553 17.5441357,11.6818553 L13.8753576,11.6818553 L13.8753576,10.7850429 C14.5004087,10.633633 14.9662852,10.0706988 14.9662852,9.39906007 C14.9662852,8.72742133 14.5004087,8.16448712 13.8753576,8.01307724 L13.8753576,6.74356355 C13.8753576,6.54944831 13.7161831,6.3902738 13.5220678,6.3902738 L9.85328975,6.3902738 L9.85328975,5.53228442 C10.4705762,5.37310992 10.9286882,4.81405802 10.9286882,4.1501839 C10.9286882,3.36207601 10.2881079,2.72149571 9.5,2.72149571 C8.71189212,2.72149571 8.07131181,3.36207601 8.07131181,4.1501839 C8.07131181,4.81794033 8.52942378,5.37699223 9.14671025,5.53228442 L9.14671025,6.3902738 L5.47793216,6.3902738 C5.28381691,6.3902738 5.12464241,6.54944831 5.12464243,6.74356355 L5.12464243,8.02084185 C4.49959134,8.17225174 4.03371475,8.73518595 4.03371475,9.40682469 C4.03371475,10.0784634 4.49959134,10.6413976 5.12464243,10.7928075 L5.12464243,11.68962 L1.45586433,11.68962 C1.26174909,11.68962 1.10257458,11.8487945 1.10257458,12.0429097 L1.10257458,13.459951 C0.473641185,13.6074785 0,14.1742951 0,14.8498161 C0,15.637924 0.640580306,16.2785043 1.42868819,16.2785043 Z M10.225991,9.40682469 C10.225991,9.80670208 9.8998774,10.1328157 9.5,10.1328157 C9.1001226,10.1328157 8.774009,9.80670208 8.774009,9.40682469 C8.774009,9.00694729 9.1001226,8.68083368 9.5,8.68083367 C9.8998774,8.68083365 10.225991,9.00694727 10.225991,9.40682469 Z M10.225991,14.8498161 C10.225991,15.2496935 9.8998774,15.5758071 9.5,15.5758071 C9.1001226,15.5758071 8.774009,15.2496935 8.774009,14.8498161 C8.774009,14.4499387 9.1001226,14.1238251 9.5,14.1238251 C9.8998774,14.1238251 10.225991,14.4499387 10.225991,14.8498161 Z M18.2934205,14.8498161 C18.2934205,15.2496935 17.9673069,15.5758071 17.5674295,15.5758071 C17.1675521,15.5758071 16.8414385,15.2496935 16.8414385,14.8498161 C16.8414385,14.4499387 17.1675521,14.1238251 17.5674295,14.1238251 C17.9711892,14.1238251 18.2934205,14.4499387 18.2934205,14.8498161 Z M14.2597058,14.8498161 C14.2597058,15.2496935 13.9335921,15.5758071 13.5337148,15.5758071 C13.1338374,15.5758071 12.8077237,15.2496935 12.8077237,14.8498161 C12.8077237,14.4499387 13.1338374,14.1238251 13.5337148,14.1238251 C13.9335921,14.1238251 14.2597058,14.4499387 14.2597058,14.8498161 Z M14.2597058,9.40682469 C14.2597058,9.80670208 13.9335921,10.1328157 13.5337148,10.1328157 C13.1338374,10.1328157 12.8077237,9.80670208 12.8077237,9.40682469 C12.8077237,9.00694729 13.1338374,8.68083368 13.5337148,8.68083367 C13.9335921,8.68083365 14.2597058,9.00694727 14.2597058,9.40682469 Z M8.774009,4.1501839 C8.774009,3.7503065 9.1001226,3.4241929 9.5,3.4241929 C9.8998774,3.4241929 10.225991,3.7503065 10.225991,4.1501839 C10.225991,4.55006129 9.8998774,4.8761749 9.5,4.8761749 C9.1001226,4.8761749 8.774009,4.55006129 8.774009,4.1501839 Z M6.18839396,14.8498161 C6.18839396,15.2496935 5.86228035,15.5758071 5.46240294,15.5758071 C5.06252553,15.5758071 4.73641194,15.2496935 4.73641194,14.8498161 C4.73641194,14.4499387 5.06252554,14.1238251 5.46240294,14.1238251 C5.86228034,14.1238251 6.18839394,14.4499387 6.18839396,14.8498161 Z M4.74029425,9.40682469 C4.74029425,9.00694729 5.06640785,8.68083368 5.46628525,8.68083367 C5.86616264,8.68083365 6.19227625,9.00694727 6.19227625,9.40682469 C6.19227625,9.80670208 5.86616264,10.1328157 5.46628525,10.1328157 C5.06640785,10.1289334 4.74029425,9.80670208 4.74029425,9.40682469 Z M1.42868819,14.1238251 C1.82856558,14.1238251 2.15467919,14.4499387 2.15467919,14.8498161 C2.15467919,15.2496935 1.82856558,15.5758071 1.42868819,15.5758071 C1.02881079,15.5758071 0.702697187,15.2496935 0.702697187,14.8498161 C0.706579496,14.4499387 1.02881079,14.1238251 1.42868819,14.1238251 Z" id="Shape" fill="#C5C5C5"></path>
                </g>
            </g>
        </g>
    </g>
</svg>