{
  "accessors": [
    {
      "name": "archmodels95_005_001_1_positions",
      "componentType": 5126,
      "count": 2945,
      "min": [
        -451.9945068359375,
        426.09368896484375,
        -180.89540100097656
      ],
      "max": [
        451.9945068359375,
        1245.385986328125,
        255.1468963623047
      ],
      "type": "VEC3",
      "bufferView": 0,
      "byteOffset": 0
    },
    {
      "name": "archmodels95_005_001_1_normals",
      "componentType": 5126,
      "count": 2945,
      "min": [
        -0.8108000159263611,
        -0.48750001192092896,
        0.18780000507831573
      ],
      "max": [
        0.8108000159263611,
        0.982200026512146,
        1
      ],
      "type": "VEC3",
      "bufferView": 0,
      "byteOffset": 799368
    },
    {
      "name": "archmodels95_005_001_1_texcoords",
      "componentType": 5126,
      "count": 2945,
      "min": [
        -0.00009999999747378752,
        -420.1592102050781
      ],
      "max": [
        421.1715087890625,
        1.0124000310897827
      ],
      "type": "VEC2",
      "bufferView": 1,
      "byteOffset": 0
    },
    {
      "name": "archmodels95_005_001_1_0_indices",
      "componentType": 5123,
      "count": 17280,
      "min": [
        0
      ],
      "max": [
        2944
      ],
      "type": "SCALAR",
      "bufferView": 2,
      "byteOffset": 0
    },
    {
      "name": "archmodels95_005_003_1_positions",
      "componentType": 5126,
      "count": 23348,
      "min": [
        -452.7134094238281,
        425.63128662109375,
        -352.7535095214844
      ],
      "max": [
        452.7134094238281,
        1246.340576171875,
        257.2976989746094
      ],
      "type": "VEC3",
      "bufferView": 0,
      "byteOffset": 35340
    },
    {
      "name": "archmodels95_005_003_1_normals",
      "componentType": 5126,
      "count": 23348,
      "min": [
        -1,
        -1,
        -1
      ],
      "max": [
        1,
        1,
        1
      ],
      "type": "VEC3",
      "bufferView": 0,
      "byteOffset": 834708
    },
    {
      "name": "archmodels95_005_003_1_texcoords",
      "componentType": 5126,
      "count": 23348,
      "min": [
        0,
        0.0272000003606081
      ],
      "max": [
        1,
        0.9728000164031982
      ],
      "type": "VEC2",
      "bufferView": 1,
      "byteOffset": 23560
    },
    {
      "name": "archmodels95_005_003_1_0_indices",
      "componentType": 5123,
      "count": 133824,
      "min": [
        0
      ],
      "max": [
        23347
      ],
      "type": "SCALAR",
      "bufferView": 2,
      "byteOffset": 34560
    },
    {
      "name": "archmodels95_005_004_1_positions",
      "componentType": 5126,
      "count": 1733,
      "min": [
        -51.77750015258789,
        901.9193115234375,
        284.4212951660156
      ],
      "max": [
        51.77750015258789,
        999.3369140625,
        336.5871887207031
      ],
      "type": "VEC3",
      "bufferView": 0,
      "byteOffset": 315516
    },
    {
      "name": "archmodels95_005_004_1_normals",
      "componentType": 5126,
      "count": 1733,
      "min": [
        -1,
        -0.9994999766349792,
        -0.9997000098228455
      ],
      "max": [
        1,
        0.9994999766349792,
        0.9991000294685364
      ],
      "type": "VEC3",
      "bufferView": 0,
      "byteOffset": 1114884
    },
    {
      "name": "archmodels95_005_004_1_texcoords",
      "componentType": 5126,
      "count": 1733,
      "min": [
        -0.0625,
        0
      ],
      "max": [
        0.9375,
        0.9901999831199646
      ],
      "type": "VEC2",
      "bufferView": 1,
      "byteOffset": 210344
    },
    {
      "name": "archmodels95_005_004_1_0_indices",
      "componentType": 5123,
      "count": 10176,
      "min": [
        0
      ],
      "max": [
        1732
      ],
      "type": "SCALAR",
      "bufferView": 2,
      "byteOffset": 302208
    },
    {
      "name": "archmodels95_005_002_1_positions",
      "componentType": 5126,
      "count": 38588,
      "min": [
        -464.2793884277344,
        0,
        -440.672607421875
      ],
      "max": [
        464.2793884277344,
        1258.91796875,
        440.672607421875
      ],
      "type": "VEC3",
      "bufferView": 0,
      "byteOffset": 336312
    },
    {
      "name": "archmodels95_005_002_1_normals",
      "componentType": 5126,
      "count": 38588,
      "min": [
        -1,
        -1,
        -1
      ],
      "max": [
        1,
        1,
        1
      ],
      "type": "VEC3",
      "bufferView": 0,
      "byteOffset": 1135680
    },
    {
      "name": "archmodels95_005_002_1_texcoords",
      "componentType": 5126,
      "count": 38588,
      "min": [
        -17.997699737548828,
        -16.997699737548828
      ],
      "max": [
        17.997699737548828,
        18.997699737548828
      ],
      "type": "VEC2",
      "bufferView": 1,
      "byteOffset": 224208
    },
    {
      "name": "archmodels95_005_002_1_0_indices",
      "componentType": 5123,
      "count": 220980,
      "min": [
        0
      ],
      "max": [
        38587
      ],
      "type": "SCALAR",
      "bufferView": 2,
      "byteOffset": 322560
    }
  ],
  "asset": {
    "generator": "obj2gltf",
    "version": "2.0"
  },
  "buffers": [
    {
      "name": "tianxian",
      "byteLength": 2896168,
      "uri": "data:application/octet-stream;base64,"
    }
  ],
  "bufferViews": [
    {
      "name": "bufferView_0",
      "buffer": 0,
      "byteLength": 1598736,
      "byteOffset": 0,
      "byteStride": 12,
      "target": 34962
    },
    {
      "name": "bufferView_1",
      "buffer": 0,
      "byteLength": 532912,
      "byteOffset": 1598736,
      "byteStride": 8,
      "target": 34962
    },
    {
      "name": "bufferView_2",
      "buffer": 0,
      "byteLength": 764520,
      "byteOffset": 2131648,
      "target": 34963
    }
  ],
  "materials": [
    {
      "name": "default",
      "pbrMetallicRoughness": {
        "baseColorFactor": [
          0.5,
          0.5,
          0.5,
          1
        ],
        "metallicFactor": 0,
        "roughnessFactor": 1
      },
      "emissiveFactor": [
        0,
        0,
        0
      ],
      "alphaMode": "OPAQUE",
      "doubleSided": false
    }
  ],
  "meshes": [
    {
      "name": "archmodels95_005_001_1",
      "primitives": [
        {
          "attributes": {
            "POSITION": 0,
            "NORMAL": 1,
            "TEXCOORD_0": 2
          },
          "indices": 3,
          "material": 0,
          "mode": 4
        }
      ]
    },
    {
      "name": "archmodels95_005_003_1",
      "primitives": [
        {
          "attributes": {
            "POSITION": 4,
            "NORMAL": 5,
            "TEXCOORD_0": 6
          },
          "indices": 7,
          "material": 0,
          "mode": 4
        }
      ]
    },
    {
      "name": "archmodels95_005_004_1",
      "primitives": [
        {
          "attributes": {
            "POSITION": 8,
            "NORMAL": 9,
            "TEXCOORD_0": 10
          },
          "indices": 11,
          "material": 0,
          "mode": 4
        }
      ]
    },
    {
      "name": "archmodels95_005_002_1",
      "primitives": [
        {
          "attributes": {
            "POSITION": 12,
            "NORMAL": 13,
            "TEXCOORD_0": 14
          },
          "indices": 15,
          "material": 0,
          "mode": 4
        }
      ]
    }
  ],
  "nodes": [
    {
      "name": "archmodels95_005_001",
      "mesh": 0
    },
    {
      "name": "archmodels95_005_003",
      "mesh": 1
    },
    {
      "name": "archmodels95_005_004",
      "mesh": 2
    },
    {
      "name": "archmodels95_005_002",
      "mesh": 3
    }
  ],
  "scene": 0,
  "scenes": [
    {
      "nodes": [
        0,
        1,
        2,
        3
      ]
    }
  ]
}
