{
  "accessors": [
    {
      "name": "AM84_026_03_1_positions",
      "componentType": 5126,
      "count": 426,
      "min": [
        -91.306396484375,
        16.104999542236328,
        -488.25201416015625
      ],
      "max": [
        -28.984500885009766,
        112.04299926757812,
        -414.8984069824219
      ],
      "type": "VEC3",
      "bufferView": 0,
      "byteOffset": 0
    },
    {
      "name": "AM84_026_03_1_normals",
      "componentType": 5126,
      "count": 426,
      "min": [
        -1,
        -1,
        -0.942799985408783
      ],
      "max": [
        1,
        1,
        1
      ],
      "type": "VEC3",
      "bufferView": 0,
      "byteOffset": 128796
    },
    {
      "name": "AM84_026_03_1_texcoords",
      "componentType": 5126,
      "count": 426,
      "min": [
        0.13580000400543213,
        0.019500000402331352
      ],
      "max": [
        0.8633999824523926,
        0.8641999959945679
      ],
      "type": "VEC2",
      "bufferView": 1,
      "byteOffset": 0
    },
    {
      "name": "AM84_026_03_1_0_indices",
      "componentType": 5123,
      "count": 1725,
      "min": [
        0
      ],
      "max": [
        425
      ],
      "type": "SCALAR",
      "bufferView": 2,
      "byteOffset": 0
    },
    {
      "name": "AM84_026_02_1_positions",
      "componentType": 5126,
      "count": 2194,
      "min": [
        -208.6790008544922,
        -112.85780334472656,
        -764.9091186523438
      ],
      "max": [
        10.850199699401855,
        379.76849365234375,
        -331.97821044921875
      ],
      "type": "VEC3",
      "bufferView": 0,
      "byteOffset": 5112
    },
    {
      "name": "AM84_026_02_1_normals",
      "componentType": 5126,
      "count": 2194,
      "min": [
        -0.9987000226974487,
        -0.9997000098228455,
        -0.9998999834060669
      ],
      "max": [
        0.9973999857902527,
        1,
        0.9995999932289124
      ],
      "type": "VEC3",
      "bufferView": 0,
      "byteOffset": 133908
    },
    {
      "name": "AM84_026_02_1_texcoords",
      "componentType": 5126,
      "count": 2194,
      "min": [
        -0.08070000261068344,
        -1.2668999433517456
      ],
      "max": [
        1.920699954032898,
        1.3981000185012817
      ],
      "type": "VEC2",
      "bufferView": 1,
      "byteOffset": 3408
    },
    {
      "name": "AM84_026_02_1_0_indices",
      "componentType": 5123,
      "count": 11472,
      "min": [
        0
      ],
      "max": [
        2193
      ],
      "type": "SCALAR",
      "bufferView": 2,
      "byteOffset": 3452
    },
    {
      "name": "AM84_026_01_1_positions",
      "componentType": 5126,
      "count": 160,
      "min": [
        -1096.9876708984375,
        51.41299819946289,
        -520.8073120117188
      ],
      "max": [
        899.1804809570312,
        165.35580444335938,
        -518.2326049804688
      ],
      "type": "VEC3",
      "bufferView": 0,
      "byteOffset": 31440
    },
    {
      "name": "AM84_026_01_1_normals",
      "componentType": 5126,
      "count": 160,
      "min": [
        -1,
        -1,
        -1
      ],
      "max": [
        1,
        1,
        1
      ],
      "type": "VEC3",
      "bufferView": 0,
      "byteOffset": 160236
    },
    {
      "name": "AM84_026_01_1_texcoords",
      "componentType": 5126,
      "count": 160,
      "min": [
        -4.424099922180176,
        0.0005000000237487257
      ],
      "max": [
        5.424099922180176,
        0.9994999766349792
      ],
      "type": "VEC2",
      "bufferView": 1,
      "byteOffset": 20960
    },
    {
      "name": "AM84_026_01_1_0_indices",
      "componentType": 5123,
      "count": 288,
      "min": [
        0
      ],
      "max": [
        159
      ],
      "type": "SCALAR",
      "bufferView": 2,
      "byteOffset": 26396
    },
    {
      "name": "AM84_026_00_1_positions",
      "componentType": 5126,
      "count": 7821,
      "min": [
        -898.0886840820312,
        -14.651900291442871,
        -695.0429077148438
      ],
      "max": [
        700.2816162109375,
        285.906005859375,
        -386.09228515625
      ],
      "type": "VEC3",
      "bufferView": 0,
      "byteOffset": 33360
    },
    {
      "name": "AM84_026_00_1_normals",
      "componentType": 5126,
      "count": 7821,
      "min": [
        -1,
        -1,
        -1
      ],
      "max": [
        1,
        1,
        1
      ],
      "type": "VEC3",
      "bufferView": 0,
      "byteOffset": 162156
    },
    {
      "name": "AM84_026_00_1_texcoords",
      "componentType": 5126,
      "count": 7821,
      "min": [
        0,
        0.00930000003427267
      ],
      "max": [
        1.0384999513626099,
        0.9474999904632568
      ],
      "type": "VEC2",
      "bufferView": 1,
      "byteOffset": 22240
    },
    {
      "name": "AM84_026_00_1_0_indices",
      "componentType": 5123,
      "count": 28446,
      "min": [
        0
      ],
      "max": [
        7820
      ],
      "type": "SCALAR",
      "bufferView": 2,
      "byteOffset": 26972
    },
    {
      "name": "AM84_026_04_1_positions",
      "componentType": 5126,
      "count": 132,
      "min": [
        -168.90719604492188,
        -2.484299898147583,
        -622.17626953125
      ],
      "max": [
        -28.90719985961914,
        211.06199645996094,
        -408.6300048828125
      ],
      "type": "VEC3",
      "bufferView": 0,
      "byteOffset": 127212
    },
    {
      "name": "AM84_026_04_1_normals",
      "componentType": 5126,
      "count": 132,
      "min": [
        -1,
        -0.707099974155426,
        -0.707099974155426
      ],
      "max": [
        1,
        0.707099974155426,
        0.707099974155426
      ],
      "type": "VEC3",
      "bufferView": 0,
      "byteOffset": 256008
    },
    {
      "name": "AM84_026_04_1_texcoords",
      "componentType": 5126,
      "count": 132,
      "min": [
        -0.2508000135421753,
        -0.14659999310970306
      ],
      "max": [
        1.2508000135421753,
        1.138100028038025
      ],
      "type": "VEC2",
      "bufferView": 1,
      "byteOffset": 84808
    },
    {
      "name": "AM84_026_04_1_0_indices",
      "componentType": 5123,
      "count": 252,
      "min": [
        0
      ],
      "max": [
        131
      ],
      "type": "SCALAR",
      "bufferView": 2,
      "byteOffset": 83864
    }
  ],
  "asset": {
    "generator": "obj2gltf",
    "version": "2.0"
  },
  "buffers": [
    {
      "name": "weixin",
      "byteLength": 427824,
      "uri": "data:application/octet-stream;base64,"
    }
  ],
  "bufferViews": [
    {
      "name": "bufferView_0",
      "buffer": 0,
      "byteLength": 257592,
      "byteOffset": 0,
      "byteStride": 12,
      "target": 34962
    },
    {
      "name": "bufferView_1",
      "buffer": 0,
      "byteLength": 85864,
      "byteOffset": 257592,
      "byteStride": 8,
      "target": 34962
    },
    {
      "name": "bufferView_2",
      "buffer": 0,
      "byteLength": 84368,
      "byteOffset": 343456,
      "target": 34963
    }
  ],
  "materials": [
    {
      "name": "default",
      "pbrMetallicRoughness": {
        "baseColorFactor": [
          0.5,
          0.5,
          0.5,
          1
        ],
        "metallicFactor": 0,
        "roughnessFactor": 1
      },
      "emissiveFactor": [
        0,
        0,
        0
      ],
      "alphaMode": "OPAQUE",
      "doubleSided": false
    }
  ],
  "meshes": [
    {
      "name": "AM84_026_03_1",
      "primitives": [
        {
          "attributes": {
            "POSITION": 0,
            "NORMAL": 1,
            "TEXCOORD_0": 2
          },
          "indices": 3,
          "material": 0,
          "mode": 4
        }
      ]
    },
    {
      "name": "AM84_026_02_1",
      "primitives": [
        {
          "attributes": {
            "POSITION": 4,
            "NORMAL": 5,
            "TEXCOORD_0": 6
          },
          "indices": 7,
          "material": 0,
          "mode": 4
        }
      ]
    },
    {
      "name": "AM84_026_01_1",
      "primitives": [
        {
          "attributes": {
            "POSITION": 8,
            "NORMAL": 9,
            "TEXCOORD_0": 10
          },
          "indices": 11,
          "material": 0,
          "mode": 4
        }
      ]
    },
    {
      "name": "AM84_026_00_1",
      "primitives": [
        {
          "attributes": {
            "POSITION": 12,
            "NORMAL": 13,
            "TEXCOORD_0": 14
          },
          "indices": 15,
          "material": 0,
          "mode": 4
        }
      ]
    },
    {
      "name": "AM84_026_04_1",
      "primitives": [
        {
          "attributes": {
            "POSITION": 16,
            "NORMAL": 17,
            "TEXCOORD_0": 18
          },
          "indices": 19,
          "material": 0,
          "mode": 4
        }
      ]
    }
  ],
  "nodes": [
    {
      "name": "AM84_026_03",
      "mesh": 0
    },
    {
      "name": "AM84_026_02",
      "mesh": 1
    },
    {
      "name": "AM84_026_01",
      "mesh": 2
    },
    {
      "name": "AM84_026_00",
      "mesh": 3
    },
    {
      "name": "AM84_026_04",
      "mesh": 4
    }
  ],
  "scene": 0,
  "scenes": [
    {
      "nodes": [
        0,
        1,
        2,
        3,
        4
      ]
    }
  ]
}
